<svg width="1733" height="1125" xmlns="http://www.w3.org/2000/svg" xmlns:xlink="http://www.w3.org/1999/xlink" xml:space="preserve" overflow="hidden"><defs><clipPath id="clip0"><rect x="1492" y="326" width="1733" height="1125"/></clipPath><clipPath id="clip1"><rect x="1493" y="327" width="1730" height="1122"/></clipPath><clipPath id="clip2"><rect x="1493" y="327" width="1730" height="1122"/></clipPath><clipPath id="clip3"><rect x="1493" y="327" width="1730" height="1122"/></clipPath><clipPath id="clip4"><rect x="1493" y="327" width="1730" height="1122"/></clipPath><clipPath id="clip5"><rect x="1726" y="377" width="1427" height="880"/></clipPath><clipPath id="clip6"><rect x="1493" y="327" width="1730" height="1122"/></clipPath><clipPath id="clip7"><rect x="1493" y="327" width="1730" height="1122"/></clipPath><clipPath id="clip8"><rect x="1493" y="327" width="1730" height="1122"/></clipPath><clipPath id="clip9"><rect x="1493" y="327" width="1730" height="1122"/></clipPath><clipPath id="clip10"><rect x="1493" y="327" width="1730" height="1122"/></clipPath><clipPath id="clip11"><rect x="1493" y="327" width="1730" height="1122"/></clipPath><clipPath id="clip12"><rect x="1493" y="327" width="1730" height="1122"/></clipPath><clipPath id="clip13"><rect x="1493" y="327" width="1730" height="1122"/></clipPath><clipPath id="clip14"><rect x="1493" y="327" width="1730" height="1122"/></clipPath><clipPath id="clip15"><rect x="1493" y="327" width="1730" height="1122"/></clipPath><clipPath id="clip16"><rect x="1493" y="327" width="1730" height="1122"/></clipPath><clipPath id="clip17"><rect x="1493" y="327" width="1730" height="1122"/></clipPath><clipPath id="clip18"><rect x="1493" y="327" width="1730" height="1122"/></clipPath><clipPath id="clip19"><rect x="1493" y="327" width="1730" height="1122"/></clipPath><clipPath id="clip20"><rect x="1493" y="327" width="1730" height="1122"/></clipPath><clipPath id="clip21"><rect x="1493" y="327" width="1730" height="1122"/></clipPath><clipPath id="clip22"><rect x="1493" y="327" width="1730" height="1122"/></clipPath><clipPath id="clip23"><rect x="1493" y="327" width="1730" height="1122"/></clipPath><clipPath id="clip24"><rect x="1493" y="327" width="1730" height="1122"/></clipPath></defs><g clip-path="url(#clip0)" transform="translate(-1492 -326)"><rect x="1493" y="327" width="1730" height="1122" fill="#FFFFFF"/><g clip-path="url(#clip1)"><path d="M1726.5 1156.54 3150.5 1156.54M1726.5 1059.53 3150.5 1059.53M1726.5 961.532 3150.5 961.532M1726.5 864.529 3150.5 864.529M1726.5 767.525 3150.5 767.525M1726.5 669.522 3150.5 669.522M1726.5 572.519 3150.5 572.519M1726.5 475.516 3150.5 475.516M1726.5 377.5 3150.5 377.5" stroke="#D9D9D9" stroke-width="3.4375" stroke-linejoin="round" stroke-miterlimit="10" fill="none"/></g><g clip-path="url(#clip2)"><path d="M2011.57 377.5 2011.57 1254.5M2295.58 377.5 2295.58 1254.5M2580.58 377.5 2580.58 1254.5M2865.59 377.5 2865.59 1254.5M3150.5 377.5 3150.5 1254.5" stroke="#D9D9D9" stroke-width="3.4375" stroke-linejoin="round" stroke-miterlimit="10" fill="none"/></g><g clip-path="url(#clip3)"><path d="M0 0 0.000360892 877" stroke="#BFBFBF" stroke-width="3.4375" stroke-linejoin="round" stroke-miterlimit="10" fill="none" fill-rule="evenodd" transform="matrix(1 0 0 -1 1726.5 1254.5)"/></g><g clip-path="url(#clip4)"><path d="M1726.5 1254.5 3150.5 1254.5" stroke="#BFBFBF" stroke-width="3.4375" stroke-linejoin="round" stroke-miterlimit="10" fill="none" fill-rule="evenodd"/></g><g clip-path="url(#clip5)"><path d="M1726.5 1254.5C1745.48 1253.85 1764.47 1253.85 1783.45 1252.55 1802.43 1251.25 1821.42 1249.31 1840.4 1246.71 1859.38 1244.11 1878.37 1240.87 1897.35 1236.97 1916.33 1233.08 1935.32 1228.53 1954.3 1223.34 1973.28 1218.15 1992.27 1212.3 2011.25 1205.81 2030.23 1199.32 2049.22 1192.18 2068.2 1184.39 2087.18 1176.6 2106.17 1168.16 2125.15 1159.07 2144.13 1149.98 2163.12 1140.25 2182.1 1129.86 2201.08 1119.47 2220.07 1108.44 2239.05 1096.75 2258.03 1085.07 2277.02 1072.73 2296 1059.75 2314.98 1046.77 2333.97 1033.13 2352.95 1018.85 2371.93 1004.57 2390.92 989.64 2409.9 974.06 2428.88 958.479 2447.87 942.25 2466.85 925.372 2485.83 908.494 2504.82 890.966 2523.8 872.79 2542.78 854.613 2561.77 835.787 2580.75 816.312 2599.73 796.837 2618.72 776.713 2637.7 755.94 2656.68 735.166 2675.67 713.744 2694.65 691.672 2713.63 669.6 2732.62 646.88 2751.6 623.51 2770.58 600.14 2789.57 576.121 2808.55 551.453 2827.53 526.784 2846.52 500.817 2865.5 475.5" stroke="#D73F09" stroke-width="6.875" stroke-linecap="round" stroke-linejoin="round" stroke-miterlimit="10" fill="none"/></g><g clip-path="url(#clip6)"><path d="M1737.75 1254.75C1737.75 1260.82 1732.82 1265.75 1726.75 1265.75 1720.68 1265.75 1715.75 1260.82 1715.75 1254.75 1715.75 1248.68 1720.68 1243.75 1726.75 1243.75 1732.82 1243.75 1737.75 1248.68 1737.75 1254.75Z" stroke="#D73F09" stroke-width="3.4375" stroke-linejoin="round" stroke-miterlimit="10" fill="#D73F09"/><path d="M1794.75 1252.75C1794.75 1258.82 1789.82 1263.75 1783.75 1263.75 1777.67 1263.75 1772.75 1258.82 1772.75 1252.75 1772.75 1246.67 1777.67 1241.75 1783.75 1241.75 1789.82 1241.75 1794.75 1246.67 1794.75 1252.75Z" stroke="#D73F09" stroke-width="3.4375" stroke-linejoin="round" stroke-miterlimit="10" fill="#D73F09"/><path d="M1851.75 1246.75C1851.75 1252.82 1846.82 1257.75 1840.75 1257.75 1834.67 1257.75 1829.75 1252.82 1829.75 1246.75 1829.75 1240.67 1834.67 1235.75 1840.75 1235.75 1846.82 1235.75 1851.75 1240.67 1851.75 1246.75Z" stroke="#D73F09" stroke-width="3.4375" stroke-linejoin="round" stroke-miterlimit="10" fill="#D73F09"/><path d="M1908.75 1236.75C1908.75 1242.82 1903.82 1247.75 1897.75 1247.75 1891.67 1247.75 1886.75 1242.82 1886.75 1236.75 1886.75 1230.67 1891.67 1225.75 1897.75 1225.75 1903.82 1225.75 1908.75 1230.67 1908.75 1236.75Z" stroke="#D73F09" stroke-width="3.4375" stroke-linejoin="round" stroke-miterlimit="10" fill="#D73F09"/><path d="M1965.75 1222.75C1965.75 1228.82 1960.82 1233.75 1954.75 1233.75 1948.67 1233.75 1943.75 1228.82 1943.75 1222.75 1943.75 1216.67 1948.67 1211.75 1954.75 1211.75 1960.82 1211.75 1965.75 1216.67 1965.75 1222.75Z" stroke="#D73F09" stroke-width="3.4375" stroke-linejoin="round" stroke-miterlimit="10" fill="#D73F09"/><path d="M2022.75 1205.75C2022.75 1211.82 2017.82 1216.75 2011.75 1216.75 2005.67 1216.75 2000.75 1211.82 2000.75 1205.75 2000.75 1199.67 2005.67 1194.75 2011.75 1194.75 2017.82 1194.75 2022.75 1199.67 2022.75 1205.75Z" stroke="#D73F09" stroke-width="3.4375" stroke-linejoin="round" stroke-miterlimit="10" fill="#D73F09"/><path d="M2079.75 1183.75C2079.75 1189.82 2074.82 1194.75 2068.75 1194.75 2062.67 1194.75 2057.75 1189.82 2057.75 1183.75 2057.75 1177.67 2062.67 1172.75 2068.75 1172.75 2074.82 1172.75 2079.75 1177.67 2079.75 1183.75Z" stroke="#D73F09" stroke-width="3.4375" stroke-linejoin="round" stroke-miterlimit="10" fill="#D73F09"/><path d="M2136.75 1158.75C2136.75 1164.82 2131.82 1169.75 2125.75 1169.75 2119.67 1169.75 2114.75 1164.82 2114.75 1158.75 2114.75 1152.67 2119.67 1147.75 2125.75 1147.75 2131.82 1147.75 2136.75 1152.67 2136.75 1158.75Z" stroke="#D73F09" stroke-width="3.4375" stroke-linejoin="round" stroke-miterlimit="10" fill="#D73F09"/><path d="M2192.75 1129.75C2192.75 1135.82 2187.82 1140.75 2181.75 1140.75 2175.67 1140.75 2170.75 1135.82 2170.75 1129.75 2170.75 1123.67 2175.67 1118.75 2181.75 1118.75 2187.82 1118.75 2192.75 1123.67 2192.75 1129.75Z" stroke="#D73F09" stroke-width="3.4375" stroke-linejoin="round" stroke-miterlimit="10" fill="#D73F09"/><path d="M2249.75 1096.75C2249.75 1102.82 2244.82 1107.75 2238.75 1107.75 2232.67 1107.75 2227.75 1102.82 2227.75 1096.75 2227.75 1090.67 2232.67 1085.75 2238.75 1085.75 2244.82 1085.75 2249.75 1090.67 2249.75 1096.75Z" stroke="#D73F09" stroke-width="3.4375" stroke-linejoin="round" stroke-miterlimit="10" fill="#D73F09"/><path d="M2306.75 1059.75C2306.75 1065.82 2301.82 1070.75 2295.75 1070.75 2289.67 1070.75 2284.75 1065.82 2284.75 1059.75 2284.75 1053.67 2289.67 1048.75 2295.75 1048.75 2301.82 1048.75 2306.75 1053.67 2306.75 1059.75Z" stroke="#D73F09" stroke-width="3.4375" stroke-linejoin="round" stroke-miterlimit="10" fill="#D73F09"/><path d="M2363.75 1018.75C2363.75 1024.82 2358.82 1029.75 2352.75 1029.75 2346.67 1029.75 2341.75 1024.82 2341.75 1018.75 2341.75 1012.67 2346.67 1007.75 2352.75 1007.75 2358.82 1007.75 2363.75 1012.67 2363.75 1018.75Z" stroke="#D73F09" stroke-width="3.4375" stroke-linejoin="round" stroke-miterlimit="10" fill="#D73F09"/><path d="M2420.75 973.75C2420.75 979.825 2415.82 984.749 2409.75 984.749 2403.67 984.749 2398.75 979.825 2398.75 973.75 2398.75 967.675 2403.67 962.75 2409.75 962.75 2415.82 962.75 2420.75 967.675 2420.75 973.75Z" stroke="#D73F09" stroke-width="3.4375" stroke-linejoin="round" stroke-miterlimit="10" fill="#D73F09"/><path d="M2477.75 924.75C2477.75 930.825 2472.82 935.75 2466.75 935.75 2460.67 935.75 2455.75 930.825 2455.75 924.75 2455.75 918.675 2460.67 913.75 2466.75 913.75 2472.82 913.75 2477.75 918.675 2477.75 924.75Z" stroke="#D73F09" stroke-width="3.4375" stroke-linejoin="round" stroke-miterlimit="10" fill="#D73F09"/><path d="M2534.75 872.75C2534.75 878.825 2529.82 883.749 2523.75 883.749 2517.67 883.749 2512.75 878.825 2512.75 872.75 2512.75 866.675 2517.67 861.75 2523.75 861.75 2529.82 861.75 2534.75 866.675 2534.75 872.75Z" stroke="#D73F09" stroke-width="3.4375" stroke-linejoin="round" stroke-miterlimit="10" fill="#D73F09"/><path d="M2591.75 815.75C2591.75 821.825 2586.82 826.749 2580.75 826.749 2574.67 826.749 2569.75 821.825 2569.75 815.75 2569.75 809.675 2574.67 804.75 2580.75 804.75 2586.82 804.75 2591.75 809.675 2591.75 815.75Z" stroke="#D73F09" stroke-width="3.4375" stroke-linejoin="round" stroke-miterlimit="10" fill="#D73F09"/><path d="M2648.75 755.75C2648.75 761.825 2643.82 766.749 2637.75 766.749 2631.67 766.749 2626.75 761.825 2626.75 755.75 2626.75 749.675 2631.67 744.75 2637.75 744.75 2643.82 744.75 2648.75 749.675 2648.75 755.75Z" stroke="#D73F09" stroke-width="3.4375" stroke-linejoin="round" stroke-miterlimit="10" fill="#D73F09"/><path d="M2705.75 691.75C2705.75 697.825 2700.82 702.75 2694.75 702.75 2688.67 702.75 2683.75 697.825 2683.75 691.75 2683.75 685.675 2688.67 680.75 2694.75 680.75 2700.82 680.75 2705.75 685.675 2705.75 691.75Z" stroke="#D73F09" stroke-width="3.4375" stroke-linejoin="round" stroke-miterlimit="10" fill="#D73F09"/><path d="M2762.75 623.75C2762.75 629.825 2757.82 634.749 2751.75 634.749 2745.67 634.749 2740.75 629.825 2740.75 623.75 2740.75 617.675 2745.67 612.75 2751.75 612.75 2757.82 612.75 2762.75 617.675 2762.75 623.75Z" stroke="#D73F09" stroke-width="3.4375" stroke-linejoin="round" stroke-miterlimit="10" fill="#D73F09"/><path d="M2819.75 550.75C2819.75 556.825 2814.82 561.75 2808.75 561.75 2802.67 561.75 2797.75 556.825 2797.75 550.75 2797.75 544.675 2802.67 539.75 2808.75 539.75 2814.82 539.75 2819.75 544.675 2819.75 550.75Z" stroke="#D73F09" stroke-width="3.4375" stroke-linejoin="round" stroke-miterlimit="10" fill="#D73F09"/><path d="M2876.75 475.75C2876.75 481.825 2871.82 486.749 2865.75 486.749 2859.67 486.749 2854.75 481.825 2854.75 475.75 2854.75 469.675 2859.67 464.75 2865.75 464.75 2871.82 464.75 2876.75 469.675 2876.75 475.75Z" stroke="#D73F09" stroke-width="3.4375" stroke-linejoin="round" stroke-miterlimit="10" fill="#D73F09"/></g><g clip-path="url(#clip7)"><text fill="#595959" font-family="Georgia,Georgia_MSFontService,sans-serif" font-weight="400" font-size="41" transform="matrix(1 0 0 1 1664.99 1267)">0</text></g><g clip-path="url(#clip8)"><text fill="#595959" font-family="Georgia,Georgia_MSFontService,sans-serif" font-weight="400" font-size="41" transform="matrix(1 0 0 1 1643.19 1170)">50</text></g><g clip-path="url(#clip9)"><text fill="#595959" font-family="Georgia,Georgia_MSFontService,sans-serif" font-weight="400" font-size="41" transform="matrix(1 0 0 1 1621.95 1072)">100</text></g><g clip-path="url(#clip10)"><text fill="#595959" font-family="Georgia,Georgia_MSFontService,sans-serif" font-weight="400" font-size="41" transform="matrix(1 0 0 1 1625.48 975)">150</text></g><g clip-path="url(#clip11)"><text fill="#595959" font-family="Georgia,Georgia_MSFontService,sans-serif" font-weight="400" font-size="41" transform="matrix(1 0 0 1 1616.63 878)">200</text></g><g clip-path="url(#clip12)"><text fill="#595959" font-family="Georgia,Georgia_MSFontService,sans-serif" font-weight="400" font-size="41" transform="matrix(1 0 0 1 1620.16 780)">250</text></g><g clip-path="url(#clip13)"><text fill="#595959" font-family="Georgia,Georgia_MSFontService,sans-serif" font-weight="400" font-size="41" transform="matrix(1 0 0 1 1616.91 683)">300</text></g><g clip-path="url(#clip14)"><text fill="#595959" font-family="Georgia,Georgia_MSFontService,sans-serif" font-weight="400" font-size="41" transform="matrix(1 0 0 1 1620.44 586)">350</text></g><g clip-path="url(#clip15)"><text fill="#595959" font-family="Georgia,Georgia_MSFontService,sans-serif" font-weight="400" font-size="41" transform="matrix(1 0 0 1 1616.36 488)">400</text></g><g clip-path="url(#clip16)"><text fill="#595959" font-family="Georgia,Georgia_MSFontService,sans-serif" font-weight="400" font-size="41" transform="matrix(1 0 0 1 1619.89 391)">450</text></g><g clip-path="url(#clip17)"><text fill="#595959" font-family="Georgia,Georgia_MSFontService,sans-serif" font-weight="400" font-size="41" transform="matrix(1 0 0 1 1713.7 1317)">0</text></g><g clip-path="url(#clip18)"><text fill="#595959" font-family="Georgia,Georgia_MSFontService,sans-serif" font-weight="400" font-size="41" transform="matrix(1 0 0 1 2000.23 1317)">5</text></g><g clip-path="url(#clip19)"><text fill="#595959" font-family="Georgia,Georgia_MSFontService,sans-serif" font-weight="400" font-size="41" transform="matrix(1 0 0 1 2274.37 1317)">10</text></g><g clip-path="url(#clip20)"><text fill="#595959" font-family="Georgia,Georgia_MSFontService,sans-serif" font-weight="400" font-size="41" transform="matrix(1 0 0 1 2560.89 1317)">15</text></g><g clip-path="url(#clip21)"><text fill="#595959" font-family="Georgia,Georgia_MSFontService,sans-serif" font-weight="400" font-size="41" transform="matrix(1 0 0 1 2841.23 1317)">20</text></g><g clip-path="url(#clip22)"><text fill="#595959" font-family="Georgia,Georgia_MSFontService,sans-serif" font-weight="400" font-size="41" transform="matrix(1 0 0 1 3127.76 1317)">25</text></g><g clip-path="url(#clip23)"><text fill="#595959" font-family="Georgia,Georgia_MSFontService,sans-serif" font-weight="400" font-size="46" transform="matrix(6.12323e-17 -1 1 6.12323e-17 1592.55 827)">y</text></g><g clip-path="url(#clip24)"><text fill="#595959" font-family="Georgia,Georgia_MSFontService,sans-serif" font-weight="400" font-size="46" transform="matrix(1 0 0 1 2426.7 1382)">x</text></g><rect x="1493.5" y="327.5" width="1730" height="1122" stroke="#D9D9D9" stroke-width="3.4375" stroke-linejoin="round" stroke-miterlimit="10" fill="none"/></g></svg>